name analog
datacolumns 19
datarows 47
range 0.2015 0.2245
endheader
time	ground_force_vx	ground_force_vy	ground_force_vz	ground_force_px	ground_force_py	ground_force_pz	l_ground_force_vx	l_ground_force_vy	l_ground_force_vz	l_ground_force_px	l_ground_force_py	l_ground_force_pz	ground_torque_x	ground_torque_y	ground_torque_z	l_ground_torque_x	l_ground_torque_y	l_ground_torque_z
0.2015	-0.0	-0.0	-0.0	1.2478488683700562	35.47170639038086	-385.4254455566406	1.300426959991455	-34.82884979248047	-410.82855224609375	-0.0	-0.0	-0.0	-0.0	-0.0	-0.0	90637.53125	-67051.0	4263.7001953125
0.202	-0.0	-0.0	-0.0	1.099369764328003	35.44508743286133	-384.2756958007813	1.1825581789016724	-35.03226089477539	-411.3005981445313	-0.0	-0.0	-0.0	-0.0	-0.0	-0.0	90318.359375	-66941.6640625	4174.31982421875
0.2025	-0.0	-0.0	-0.0	1.073556661605835	34.96933364868164	-386.9654846191406	1.3001210689544678	-35.33099365234375	-410.7179260253906	-0.0	-0.0	-0.0	-0.0	-0.0	-0.0	90466.96875	-67187.21875	4263.7666015625
0.203	-0.0	-0.0	-0.0	0.8062424659729004	35.3545036315918	-385.67913818359375	1.5959432125091553	-34.85776901245117	-411.6497802734375	-0.0	-0.0	-0.0	-0.0	-0.0	-0.0	90463.2890625	-66957.234375	4293.708984375
0.20350000000000001	-0.0	-0.0	-0.0	1.007930874824524	35.41510772705078	-384.74798583984375	1.360609769821167	-35.15203094482422	-410.8326721191406	-0.0	-0.0	-0.0	-0.0	-0.0	-0.0	90280.5390625	-66737.6640625	4214.19580078125
0.20400000000000001	-0.0	-0.0	-0.0	1.184166669845581	35.058624267578125	-385.5600280761719	1.5080833435058594	-35.210838317871094	-411.3010559082031	-0.0	-0.0	-0.0	-0.0	-0.0	-0.0	90064.078125	-66807.171875	4105.48095703125
0.20450000000000002	-0.0	-0.0	-0.0	1.3099086284637451	35.29563903808594	-385.6901550292969	1.0646593570709229	-35.063838958740234	-409.0901794433594	-0.0	-0.0	-0.0	-0.0	-0.0	-0.0	90428.6484375	-66696.6171875	4223.90625
0.20500000000000002	-0.0	-0.0	-0.0	1.2513542175292969	35.32855987548828	-385.0679931640625	1.3897007703781128	-34.94615173339844	-412.2300720214844	-0.0	-0.0	-0.0	-0.0	-0.0	-0.0	90270.3515625	-66755.2265625	4303.3193359375
0.20550000000000002	-0.0	-0.0	-0.0	1.0985807180404663	35.293121337890625	-385.521484375	1.2122406959533691	-35.06371307373047	-411.7633972167969	-0.0	-0.0	-0.0	-0.0	-0.0	-0.0	90320.09375	-66881.46875	4194.455078125
0.20600000000000002	-0.0	-0.0	-0.0	1.3409225940704346	35.26224899291992	-385.5511169433594	1.3008713722229004	-34.94572830200195	-410.1384887695313	-0.0	-0.0	-0.0	-0.0	-0.0	-0.0	90268.75	-66857.828125	4184.64013671875
0.20650000000000002	-0.0	-0.0	-0.0	1.572132229804993	35.264949798583984	-385.0993957519531	1.41937255859375	-34.59321975708008	-411.0656433105469	-0.0	-0.0	-0.0	-0.0	-0.0	-0.0	90248.6328125	-66773.8828125	4175.1318359375
0.20700000000000002	-0.0	-0.0	-0.0	1.4827086925506592	35.28944396972656	-384.3938903808594	1.123339056968689	-34.88904571533203	-410.7160949707031	-0.0	-0.0	-0.0	-0.0	-0.0	-0.0	90002.625	-66634.890625	4214.5615234375
0.20750000000000002	-0.0	-0.0	-0.0	0.9813156127929688	35.44639205932617	-384.407958984375	1.3294707536697388	-35.29765701293945	-410.253173828125	-0.0	-0.0	-0.0	-0.0	-0.0	-0.0	90245.3359375	-66798.171875	4234.3359375
0.20800000000000002	-0.0	-0.0	-0.0	1.3381576538085938	34.70598602294922	-384.0423278808594	1.3006558418273926	-35.03253555297852	-410.0169677734375	-0.0	-0.0	-0.0	-0.0	-0.0	-0.0	90098.5625	-66565.4375	4224.82470703125
0.2085	-0.0	-0.0	-0.0	1.3854429721832275	35.206512451171875	-384.7210083007813	0.942638635635376	-35.18198776245117	-409.2239685058594	-0.0	-0.0	-0.0	-0.0	-0.0	-0.0	90236.1640625	-66490.5859375	4282.44189453125
0.209	-0.0	-0.0	-0.0	1.4817326068878174	35.226009368896484	-383.583740234375	0.8888293504714966	-35.00368881225586	-411.1752014160156	-0.0	-0.0	-0.0	-0.0	-0.0	-0.0	89919.921875	-66530.421875	4272.8671875
0.2095	-0.0	-0.0	-0.0	1.7221041917800903	35.322723388671875	-385.1963806152344	1.1495652198791504	-35.618202209472656	-410.0227966308594	-0.0	-0.0	-0.0	-0.0	-0.0	-0.0	89865.9140625	-66302.1484375	4233.728515625
0.21	-0.0	-0.0	-0.0	1.4273681640625	34.72975158691406	-383.9397888183594	1.3045543432235718	-35.296478271484375	-410.1504211425781	-0.0	-0.0	-0.0	-0.0	-0.0	-0.0	89626.09375	-66351.5	4224.49560546875
0.2105	-0.0	-0.0	-0.0	1.4629243612289429	34.61376190185547	-386.7320556640625	1.0645294189453125	-35.27054214477539	-410.253173828125	-0.0	-0.0	-0.0	-0.0	-0.0	-0.0	89803.3984375	-66211.4375	4293.083984375
0.211	-0.0	-0.0	-0.0	1.190981388092041	34.90338516235352	-385.4250793457031	1.3306617736816406	-35.50531768798828	-410.9419860839844	-0.0	-0.0	-0.0	-0.0	-0.0	-0.0	89813.3203125	-66158.3046875	4283.05712890625
0.2115	-0.0	-0.0	-0.0	1.471104621887207	34.729576110839844	-386.3975524902344	0.917546808719635	-35.56852722167969	-410.9617004394531	-0.0	-0.0	-0.0	-0.0	-0.0	-0.0	90061.8828125	-66103.0390625	4244.62548828125
0.212	-0.0	-0.0	-0.0	1.668527364730835	34.462127685546875	-386.712646484375	1.2419509887695312	-35.56327819824219	-412.44622802734375	-0.0	-0.0	-0.0	-0.0	-0.0	-0.0	90128.671875	-66215.6015625	4402.52392578125
0.2125	-0.0	-0.0	-0.0	1.4273681640625	34.43575668334961	-386.1502075195313	1.208353042602539	-35.974361419677734	-412.8056945800781	-0.0	-0.0	-0.0	-0.0	-0.0	-0.0	90326.9453125	-66202.84375	4468.9716796875
0.213	-0.0	-0.0	-0.0	1.2489471435546875	34.25753402709961	-385.7971496582031	1.327526569366455	-35.76716232299805	-412.5890808105469	-0.0	-0.0	-0.0	-0.0	-0.0	-0.0	90490.578125	-66447.015625	4490.5556640625
0.2135	-0.0	-0.0	-0.0	0.787473738193512	34.1684455871582	-387.0426940917969	1.0032223463058472	-35.90993881225586	-415.0334167480469	-0.0	-0.0	-0.0	-0.0	-0.0	-0.0	90812.2578125	-66562.6484375	4482.19921875
0.214	-0.0	-0.0	-0.0	1.7582134008407593	34.37275695800781	-387.1437377929688	0.8291306495666504	-36.0693244934082	-416.188720703125	-0.0	-0.0	-0.0	-0.0	-0.0	-0.0	90994.65625	-66513.8203125	4606.4072265625
0.2145	-0.0	-0.0	-0.0	1.3122771978378296	34.3985595703125	-384.86370849609375	1.1569037437438965	-36.67686462402344	-415.47601318359375	-0.0	-0.0	-0.0	-0.0	-0.0	-0.0	91116.640625	-66730.953125	4626.94287109375
0.215	-0.0	-0.0	-0.0	1.2687749862670898	33.964622497558594	-386.27685546875	1.0645294189453125	-36.71111297607422	-415.71820068359375	-0.0	-0.0	-0.0	-0.0	-0.0	-0.0	91006.7734375	-66597.0390625	4638.37255859375
0.2155	-0.0	-0.0	-0.0	0.9556736946105956	34.14308166503906	-385.6724853515625	1.0067286491394043	-36.807373046875	-416.765380859375	-0.0	-0.0	-0.0	-0.0	-0.0	-0.0	91299.8125	-66491.484375	4651.30908203125
0.216	-0.0	-0.0	-0.0	1.04496169090271	34.39183044433594	-385.5465087890625	0.8561592698097229	-36.65350341796875	-417.00885009765625	-0.0	-0.0	-0.0	-0.0	-0.0	-0.0	90921.453125	-66395.7578125	4679.599609375
0.2165	-0.0	-0.0	-0.0	1.2743505239486694	33.89493560791016	-385.0924377441406	0.5899468660354614	-36.83014678955078	-417.3238830566406	-0.0	-0.0	-0.0	-0.0	-0.0	-0.0	91043.8203125	-66099.1953125	4648.31884765625
0.217	-0.0	-0.0	-0.0	1.2355966567993164	33.89482116699219	-385.61962890625	0.2441441416740417	-37.2672233581543	-415.9619445800781	-0.0	-0.0	-0.0	-0.0	-0.0	-0.0	90974.7109375	-66040.0703125	4628.6923828125
0.2175	-0.0	-0.0	-0.0	1.5989975929260254	34.21929168701172	-384.23291015625	-0.1198360845446586	-37.532073974609375	-415.8579406738281	-0.0	-0.0	-0.0	-0.0	-0.0	-0.0	90966.140625	-65984.640625	4735.068359375
0.218	-0.0	-0.0	-0.0	1.4704309701919556	33.951656341552734	-385.22015380859375	-0.3548431396484375	-37.36495971679688	-416.5185852050781	-0.0	-0.0	-0.0	-0.0	-0.0	-0.0	90992.8671875	-65692.578125	4499.19091796875
0.2185	-0.0	-0.0	-0.0	1.216827392578125	33.73052978515625	-385.1216125488281	-0.6259955167770386	-37.625038146972656	-417.8510437011719	-0.0	-0.0	-0.0	-0.0	-0.0	-0.0	90794.15625	-65799.9375	4498.931640625
0.219	-0.0	-0.0	-0.0	1.184575080871582	34.16910171508789	-384.7112731933594	-0.8557984828948975	-37.57308197021485	-417.811279296875	-0.0	-0.0	-0.0	-0.0	-0.0	-0.0	91358.1328125	-65795.578125	4566.8349609375
0.2195	-0.0	-0.0	-0.0	1.5337070226669312	33.99291229248047	-383.20025634765625	-1.0277135372161863	-37.73919296264648	-420.2764587402344	-0.0	-0.0	-0.0	-0.0	-0.0	-0.0	91442.8671875	-65917.3828125	4536.95751953125
0.22	-0.0	-0.0	-0.0	1.2981772422790527	33.90182113647461	-383.0723876953125	-1.0848478078842163	-37.88447952270508	-420.2548828125	-0.0	-0.0	-0.0	-0.0	-0.0	-0.0	91602.1640625	-66019.9296875	4425.623046875
0.2205	-0.0	-0.0	-0.0	1.3137036561965942	34.404335021972656	-384.6784057617188	-1.5910028219223022	-37.77608871459961	-422.0231018066406	-0.0	-0.0	-0.0	-0.0	-0.0	-0.0	91752.78125	-66263.40625	4438.87939453125
0.221	-0.0	-0.0	-0.0	1.273284077644348	33.788516998291016	-383.6818237304688	-1.3622206449508667	-37.98426818847656	-422.3727416992188	-0.0	-0.0	-0.0	-0.0	-0.0	-0.0	91943.5078125	-65910.7421875	4549.0869140625
0.2215	-0.0	-0.0	-0.0	1.1922122240066528	33.84531784057617	-384.2272644042969	-1.527517557144165	-38.23723602294922	-422.8465576171875	-0.0	-0.0	-0.0	-0.0	-0.0	-0.0	91783.3359375	-65998.546875	4546.8974609375
0.222	-0.0	-0.0	-0.0	1.394811987876892	34.10441970825195	-383.9685363769531	-1.438406467437744	-38.18650817871094	-422.2240905761719	-0.0	-0.0	-0.0	-0.0	-0.0	-0.0	91803.7734375	-65864.796875	4517.283203125
0.2225	-0.0	-0.0	-0.0	1.5165786743164062	33.830257415771484	-382.5546569824219	-1.7742156982421875	-37.95319747924805	-420.878173828125	-0.0	-0.0	-0.0	-0.0	-0.0	-0.0	91737.96875	-65800.5546875	4447.14453125
0.223	-0.0	-0.0	-0.0	1.3620320558547974	33.60216522216797	-382.6580200195313	-2.1039252281188965	-37.85835647583008	-422.0515747070313	-0.0	-0.0	-0.0	-0.0	-0.0	-0.0	91413.3046875	-65764.6015625	4334.91796875
0.2235	-0.0	-0.0	-0.0	0.7849161624908447	34.28250503540039	-383.8710021972656	-2.629469871520996	-37.56161117553711	-422.2496948242188	-0.0	-0.0	-0.0	-0.0	-0.0	-0.0	90958.8203125	-65179.12890625	4236.6171875
0.224	-0.0	-0.0	-0.0	0.065544418990612	33.813167572021484	-381.4703979492188	-3.129803419113159	-37.699493408203125	-420.4059753417969	-0.0	-0.0	-0.0	-0.0	-0.0	-0.0	90954.90625	-65044.6640625	4200.4921875
0.2245	-0.0	-0.0	-0.0	-0.2347787916660308	33.86955261230469	-382.81005859375	-3.427748203277588	-37.56137466430664	-419.8751831054688	-0.0	-0.0	-0.0	-0.0	-0.0	-0.0	90521.5703125	-64695.9921875	3959.541015625
